# xmcd
#
# Track frame offsets: 
#        150
#        16338
#        31767
#        49786
#        65718
#        81469
#        98480
#        111771
#        126305
#        141909
#
# Disc length: 2125 seconds
#
# Revision: 0
# Processed by: cddbd v1.5.1PL2 Copyright (c) Steve Scherf et al.
# Submitted via: ExactAudioCopy v0.95b4
#
DISCID=85084b0a
DTITLE=อัศวิน  สีทอง - เรียกพ่อซิลูก
DYEAR=1900
DGENRE=Country
TTITLE0=เรียกพ่อสิลูก
TTITLE1=ไม่พรืออยู่แล้ว
TTITLE2=มือนี้ไม่มีเธอ
TTITLE3=สวนตะพืดตะพือ
TTITLE4=เปลี่ยนแฟนไม่เปลี่ยนแฟลต
TTITLE5=ไม่เหมือนเก่า
TTITLE6=เมียสองต้องห้าม
TTITLE7=สามีมือสอง
TTITLE8=ไม่น่าเกลี'
TTITLE9=สุขเถิดที่รัก
EXTD=
EXTT0=
EXTT1=
EXTT2=
EXTT3=
EXTT4=
EXTT5=
EXTT6=
EXTT7=
EXTT8=
EXTT9=
PLAYORDER=
